<svg width="58" height="58" viewBox="0 0 58 58" fill="none" xmlns="http://www.w3.org/2000/svg">
<path d="M12.6875 27.1875H48.9375C49.4182 27.1875 49.8792 27.3785 50.2191 27.7184C50.559 28.0583 50.75 28.5193 50.75 29C50.75 29.4807 50.559 29.9417 50.2191 30.2816C49.8792 30.6215 49.4182 30.8125 48.9375 30.8125H12.6875C12.2068 30.8125 11.7458 30.6215 11.4059 30.2816C11.066 29.9417 10.875 29.4807 10.875 29C10.875 28.5193 11.066 28.0583 11.4059 27.7184C11.7458 27.3785 12.2068 27.1875 12.6875 27.1875Z" fill="black"/>
<path d="M13.4379 28.9998L28.4708 44.0291C28.8112 44.3694 29.0024 44.831 29.0024 45.3123C29.0024 45.7937 28.8112 46.2553 28.4708 46.5956C28.1305 46.9359 27.6689 47.1271 27.1876 47.1271C26.7063 47.1271 26.2447 46.9359 25.9043 46.5956L9.59182 30.2831C9.42302 30.1147 9.28911 29.9147 9.19773 29.6945C9.10636 29.4743 9.05933 29.2383 9.05933 28.9998C9.05933 28.7614 9.10636 28.5254 9.19773 28.3052C9.28911 28.085 9.42302 27.885 9.59182 27.7166L25.9043 11.4041C26.2447 11.0638 26.7063 10.8726 27.1876 10.8726C27.6689 10.8726 28.1305 11.0638 28.4708 11.4041C28.8112 11.7444 29.0024 12.206 29.0024 12.6873C29.0024 13.1687 28.8112 13.6303 28.4708 13.9706L13.4379 28.9998Z" fill="black"/>
</svg>
