<svg width="22" height="24" viewBox="0 0 22 24" fill="none" xmlns="http://www.w3.org/2000/svg">
<path d="M9.06667 0.530023L1.06667 6.53002C0.4 7.03669 0 7.82336 0 8.66336V20.6634C0 22.13 1.2 23.33 2.66667 23.33H18.6667C20.1333 23.33 21.3333 22.13 21.3333 20.6634V8.66336C21.3333 7.82336 20.9333 7.03669 20.2667 6.53002L12.2667 0.530023C11.8042 0.18587 11.2431 0 10.6667 0C10.0902 0 9.52912 0.18587 9.06667 0.530023ZM11.3333 11.9967C11.3333 13.1034 10.44 13.9967 9.33333 13.9967V18.6634C9.33333 19.0367 9.04 19.33 8.66667 19.33C8.29333 19.33 8 19.0367 8 18.6634V13.9967C6.89333 13.9967 6 13.1034 6 11.9967V8.66336C6 8.29002 6.29333 7.99669 6.66667 7.99669C7.04 7.99669 7.33333 8.29002 7.33333 8.66336V11.9967H8V8.66336C8 8.29002 8.29333 7.99669 8.66667 7.99669C9.04 7.99669 9.33333 8.29002 9.33333 8.66336V11.9967H10V8.66336C10 8.29002 10.2933 7.99669 10.6667 7.99669C11.04 7.99669 11.3333 8.29002 11.3333 8.66336V11.9967ZM14 19.33C13.6267 19.33 13.3333 19.0367 13.3333 18.6634V14.6634H12.6667C12.2933 14.6634 12 14.37 12 13.9967V10.6634C12 9.49002 12.76 8.49002 13.8133 8.14336C14.2267 7.99669 14.6667 8.33002 14.6667 8.78336V18.6634C14.6667 19.0367 14.3733 19.33 14 19.33Z" fill="black"/>
</svg>
