<svg width="138" height="138" viewBox="0 0 138 138" fill="none" xmlns="http://www.w3.org/2000/svg">
<rect width="138" height="138" rx="69" fill="url(#paint0_linear_1_280)"/>
<path fill-rule="evenodd" clip-rule="evenodd" d="M68.9998 38.5416C63.8205 38.5416 59.5393 38.9978 56.2442 39.5531L55.8645 39.6183C53.0028 40.0971 50.6228 40.4966 48.7613 42.786C47.5713 44.2565 47.1832 45.846 47.0953 47.6168L45.7013 48.0815C44.3895 48.5178 43.2363 48.9031 42.3268 49.3281C41.3408 49.7871 40.437 50.3765 39.7457 51.337C39.0543 52.2975 38.7795 53.3401 38.6548 54.4196C38.5415 55.4198 38.5415 56.6296 38.5415 58.0151V58.426C38.5415 59.565 38.5415 60.5708 38.6265 61.4123C38.7172 62.3218 38.9183 63.2086 39.4198 64.0643C39.927 64.9228 40.6013 65.5291 41.355 66.0505C42.0492 66.5321 42.9275 67.0223 43.9248 67.5748L51.4048 71.7313C52.9348 74.7375 55.0343 77.4178 57.9215 79.353C60.4347 81.0416 63.4522 82.1013 67.025 82.3818C66.9289 82.6325 66.878 82.8982 66.8748 83.1666V88.125H62.8232C61.6769 88.125 60.566 88.5222 59.6795 89.2491C58.7931 89.9759 58.1859 90.9874 57.9612 92.1115L57.3407 95.2083H51.9998C51.4363 95.2083 50.8958 95.4322 50.4972 95.8307C50.0987 96.2292 49.8748 96.7697 49.8748 97.3333C49.8748 97.8969 50.0987 98.4374 50.4972 98.8359C50.8958 99.2344 51.4363 99.4583 51.9998 99.4583H85.9998C86.5634 99.4583 87.1039 99.2344 87.5024 98.8359C87.901 98.4374 88.1248 97.8969 88.1248 97.3333C88.1248 96.7697 87.901 96.2292 87.5024 95.8307C87.1039 95.4322 86.5634 95.2083 85.9998 95.2083H80.659L80.0385 92.1115C79.8138 90.9874 79.2066 89.9759 78.3202 89.2491C77.4337 88.5222 76.3228 88.125 75.1765 88.125H71.1248V83.1666C71.1217 82.8982 71.0708 82.6325 70.9747 82.3818C74.5475 82.0985 77.565 81.0416 80.0782 79.3558C82.9682 77.4178 85.0648 74.7375 86.5948 71.7313L94.0748 67.5748C95.0722 67.0223 95.9505 66.5321 96.6447 66.0505C97.3955 65.5291 98.0727 64.9228 98.577 64.0671C99.0813 63.2086 99.2853 62.3218 99.3732 61.4123C99.4582 60.5708 99.4582 59.565 99.4582 58.426V58.0151C99.4582 56.6325 99.4582 55.4198 99.3448 54.4196C99.2202 53.3401 98.9482 52.2946 98.254 51.337C97.5627 50.3765 96.6588 49.7871 95.6757 49.3253C94.7605 48.9003 93.6102 48.5178 92.2983 48.0815L90.9043 47.6168C90.8193 45.8431 90.4312 44.2565 89.2383 42.786C87.3797 40.4938 84.9997 40.0943 82.138 39.6183L81.7555 39.5531C77.5393 38.8603 73.2725 38.522 68.9998 38.5416ZM76.324 95.2083L75.8707 92.9445C75.8386 92.784 75.7519 92.6395 75.6254 92.5357C75.4988 92.4319 75.3402 92.3751 75.1765 92.375H62.8232C62.6595 92.3751 62.5009 92.4319 62.3743 92.5357C62.2478 92.6395 62.1611 92.784 62.129 92.9445L61.6757 95.2083H76.324ZM47.1492 52.0793L47.1888 52.0651C47.3928 56.3718 47.8773 61.1318 49.09 65.5801L46.0697 63.9056C44.9675 63.2908 44.2762 62.9055 43.7775 62.5598C43.3185 62.2396 43.1683 62.0498 43.0862 61.9081C43.0012 61.7665 42.9105 61.5455 42.8538 60.9901C42.7953 60.1055 42.7745 59.2188 42.7915 58.3325V58.1256C42.7915 56.5985 42.7943 55.6323 42.8765 54.9013C42.9558 54.227 43.0805 53.9748 43.1938 53.8218C43.3043 53.666 43.5027 53.4676 44.1175 53.1815C44.7862 52.8698 45.7042 52.5638 47.1492 52.0793ZM90.8108 52.0623C90.6097 56.369 90.1223 61.129 88.9125 65.5773L91.93 63.9028C93.0322 63.288 93.7235 62.9026 94.2222 62.557C94.6812 62.2368 94.8313 62.047 94.9135 61.9053C94.9985 61.7636 95.0892 61.5426 95.1458 60.9873C95.2053 60.381 95.2082 59.5905 95.2082 58.3296V58.1228C95.2082 56.5956 95.2053 55.6295 95.1232 54.8985C95.0438 54.2241 94.9192 53.972 94.8058 53.819C94.6953 53.6631 94.497 53.4648 93.8822 53.1786C93.2135 52.867 92.2955 52.5581 90.8505 52.0736L90.8108 52.0623ZM56.9525 43.7436C60.9348 43.0917 64.9646 42.7733 68.9998 42.7916C73.9298 42.7916 77.973 43.2251 81.0472 43.7436C84.467 44.3216 85.1838 44.537 85.9403 45.4663C86.6827 46.3786 86.7535 47.2456 86.6005 51.0848C86.3455 57.4825 85.5012 64.3901 82.8888 69.6431C81.5968 72.2328 79.9082 74.3521 77.7123 75.8255C75.5278 77.2903 72.7087 78.2083 68.9998 78.2083C65.291 78.2083 62.4747 77.2903 60.2902 75.8255C58.0915 74.3521 56.4028 72.2328 55.1137 69.6403C52.4985 64.3901 51.657 57.4853 51.402 51.082C51.249 47.2456 51.317 46.3786 52.0622 45.4663C52.8158 44.537 53.5327 44.3216 56.9525 43.7436Z" fill="white" stroke="white" stroke-width="1.5"/>
<defs>
<linearGradient id="paint0_linear_1_280" x1="-6.81609e-06" y1="-59.5" x2="113.5" y2="175.5" gradientUnits="userSpaceOnUse">
<stop/>
<stop offset="0.605769" stop-color="#D64541"/>
</linearGradient>
</defs>
</svg>
