<svg width="42" height="42" viewBox="0 0 42 42" fill="none" xmlns="http://www.w3.org/2000/svg">
<path d="M33.25 26.25H40.25V5.25H33.25M26.25 5.25H10.5C9.0475 5.25 7.805 6.125 7.28 7.385L1.995 19.7225C1.8375 20.125 1.75 20.545 1.75 21V24.5C1.75 25.4283 2.11875 26.3185 2.77513 26.9749C3.4315 27.6313 4.32174 28 5.25 28H16.2925L14.63 35.9975C14.595 36.1725 14.5775 36.3475 14.5775 36.54C14.5775 37.275 14.875 37.9225 15.3475 38.395L17.2025 40.25L28.7175 28.7175C29.365 28.0875 29.75 27.2125 29.75 26.25V8.75C29.75 7.82174 29.3813 6.9315 28.7249 6.27513C28.0685 5.61875 27.1783 5.25 26.25 5.25Z" fill="black"/>
</svg>
