<svg width="31" height="31" viewBox="0 0 31 31" fill="none" xmlns="http://www.w3.org/2000/svg">
<path d="M10.7991 1.01983C7.70177 2.09434 5.03059 4.13379 3.17797 6.83863C1.32535 9.54346 0.388942 12.7711 0.506284 16.0475C0.623626 19.3238 1.78854 22.4762 3.82991 25.0416C5.87128 27.607 8.68151 29.4501 11.8478 30.3003C14.4148 30.9627 17.1043 30.9918 19.685 30.3851C22.0229 29.8599 24.1843 28.7366 25.9577 27.1252C27.8033 25.3968 29.143 23.1981 29.8327 20.7654C30.5823 18.1199 30.7157 15.3378 30.2226 12.6327H15.8076V18.6123H24.1558C23.9889 19.566 23.6314 20.4763 23.1046 21.2886C22.5777 22.1009 21.8924 22.7985 21.0897 23.3398C20.0703 24.0142 18.9211 24.4679 17.716 24.6719C16.5074 24.8966 15.2676 24.8966 14.059 24.6719C12.834 24.4186 11.6751 23.913 10.6563 23.1872C9.01943 22.0286 7.7904 20.3825 7.14454 18.484C6.48776 16.5498 6.48776 14.453 7.14454 12.5189C7.60428 11.1632 8.36428 9.92878 9.36782 8.90787C10.5163 7.71812 11.9702 6.86768 13.5702 6.44985C15.1701 6.03203 16.8542 6.06297 18.4377 6.53928C19.6748 6.91901 20.806 7.58247 21.7412 8.47678C22.6825 7.54032 23.6222 6.60144 24.5602 5.66014C25.0446 5.15397 25.5726 4.67201 26.0497 4.15373C24.6222 2.82528 22.9465 1.79157 21.1188 1.11186C17.7904 -0.0966829 14.1485 -0.129161 10.7991 1.01983Z" fill="white"/>
<path d="M10.7992 1.01954C14.1483 -0.13023 17.7901 -0.0986066 21.1188 1.10915C22.9468 1.79348 24.6217 2.83216 26.0473 4.16555C25.5629 4.68383 25.0519 5.16821 24.5578 5.67196C23.6181 6.61003 22.6793 7.54488 21.7412 8.47649C20.806 7.58218 19.6748 6.91872 18.4378 6.53899C16.8548 6.06101 15.1707 6.02828 13.5703 6.4444C11.9699 6.86051 10.5151 7.70939 9.36541 8.8979C8.36187 9.9188 7.60186 11.1532 7.14213 12.5089L2.12158 8.6218C3.91863 5.05816 7.03011 2.33225 10.7992 1.01954Z" fill="#E33629"/>
<path d="M0.789563 12.4729C1.05941 11.1355 1.50742 9.84034 2.12159 8.62207L7.14214 12.5189C6.48536 14.453 6.48536 16.5498 7.14214 18.4839C5.46943 19.7756 3.79592 21.0737 2.12159 22.3783C0.584069 19.3178 0.11515 15.8308 0.789563 12.4729Z" fill="#F8BD00"/>
<path d="M15.8076 12.6299H30.2226C30.7157 15.335 30.5823 18.117 29.8327 20.7625C29.143 23.1953 27.8033 25.394 25.9577 27.1224C24.3374 25.8582 22.7099 24.6036 21.0897 23.3394C21.893 22.7976 22.5786 22.0992 23.1055 21.286C23.6323 20.4728 23.9896 19.5616 24.1558 18.6071H15.8076C15.8052 16.6163 15.8076 14.6231 15.8076 12.6299Z" fill="#587DBD"/>
<path d="M2.11914 22.3783C3.79346 21.0866 5.46698 19.7885 7.13969 18.4839C7.78683 20.3831 9.01762 22.0293 10.6562 23.1872C11.6783 23.9095 12.8396 24.411 14.0663 24.6597C15.2749 24.8844 16.5146 24.8844 17.7233 24.6597C18.9284 24.4557 20.0775 24.002 21.097 23.3276C22.7172 24.5919 24.3447 25.8464 25.9649 27.1106C24.1918 28.7229 22.0304 29.847 19.6923 30.3729C17.1115 30.9796 14.4221 30.9505 11.8551 30.2881C9.82482 29.746 7.92843 28.7904 6.28477 27.4812C4.54504 26.0999 3.12411 24.3593 2.11914 22.3783Z" fill="#319F43"/>
</svg>
