<svg width="65" height="65" viewBox="0 0 65 65" fill="none" xmlns="http://www.w3.org/2000/svg">
<path d="M35.0846 2.15308C34.5361 2.64058 30.2705 11.1058 30.2705 11.1058L27.0967 23.9078L39.4467 22.7753C39.4467 22.7753 49.7197 3.67144 49.9279 3.22964C50.2986 2.4273 50.4967 2.09722 49.0799 2.09722C47.6631 2.09214 35.5975 1.69605 35.0846 2.15308Z" fill="#176CC7"/>
<path d="M41.4782 21.9832C40.8638 21.6532 22.7653 21.3688 22.3388 21.9832C21.9528 22.5418 22.0087 25.0961 22.1966 25.4262C22.3845 25.7563 28.4681 28.5848 28.4681 28.5848L28.463 29.6157C28.463 29.6157 28.7982 30.4231 32.1903 30.4231C35.5825 30.4231 35.9329 29.7375 35.9329 29.7375L35.9634 28.6965C35.9634 28.6965 41.2903 26.0356 41.5696 25.802C41.854 25.5633 42.0927 22.3133 41.4782 21.9832ZM35.9025 26.2133C35.9025 26.2133 35.8872 25.5024 35.5368 25.3246C35.1864 25.1469 29.5446 25.1774 29.0673 25.2028C28.59 25.2282 28.59 26.0813 28.59 26.0813L24.7306 24.2024V23.8266L39.1017 23.9282L39.1271 24.3547L35.9025 26.2133Z" fill="#FCC417"/>
<path d="M30.0929 25.9847C29.6155 25.9847 29.3413 26.4824 29.3413 27.3406C29.3413 28.1429 29.6155 28.8183 30.2198 28.7676C30.7175 28.7269 30.8901 27.9652 30.8444 27.2898C30.7987 26.4875 30.6972 25.9847 30.0929 25.9847Z" fill="#FDFFFF"/>
<path d="M14.7163 46.0688C14.7163 58.2359 25.7155 63.6543 33.028 63.3953C41.0921 63.1059 50.7507 56.8191 50.1667 45.2105C49.6132 34.2113 40.3608 28.9961 32.3476 29.052C23.0343 29.118 14.7163 35.4402 14.7163 46.0688Z" fill="#FCC417"/>
<path d="M32.7693 61.2778C32.6424 61.2778 32.5103 61.2778 32.3834 61.2727C28.5748 61.1458 24.8119 59.5411 22.0596 56.875C19.1143 54.0211 17.4994 50.1618 17.5197 46.0129C17.5654 35.8821 26.4217 31.1848 32.4291 31.1848H32.4799C40.6201 31.2204 47.3029 37.5477 47.4908 46.1247C47.5721 49.9434 46.008 53.95 42.9408 56.9665C40.0768 59.7747 36.2783 61.2778 32.7693 61.2778ZM32.4189 32.8708C27.031 32.8708 19.0635 37.2786 19.0432 46.0129C19.0279 52.5434 24.0857 59.2567 32.5103 59.5411C35.7197 59.6426 39.0256 58.4137 41.6967 55.7883C44.4693 53.0614 46.0283 49.5473 45.9725 46.145C45.8506 38.7665 39.8178 32.8961 32.4951 32.8657C32.4748 32.8657 32.4342 32.8708 32.4189 32.8708Z" fill="#FA912C"/>
<path d="M29.3619 30.7785C29.0115 30.2961 25.0405 30.3875 21.2877 34.0539C17.667 37.5934 17.276 40.9297 17.9717 41.1227C18.7588 41.341 19.7186 37.8067 23.0346 34.836C26.0815 32.1141 30.0627 31.7383 29.3619 30.7785ZM44.7233 43.9156C43.4994 44.0883 44.769 47.7547 41.9303 51.8578C39.4674 55.4176 36.6744 56.7074 36.9994 57.4895C37.4362 58.5356 41.91 55.9305 43.9819 51.6852C45.8608 47.841 45.6373 43.7836 44.7233 43.9156Z" fill="#FEFFFA"/>
<path d="M28.3614 39.1118C28.0973 39.5028 28.336 42.9305 28.4934 43.0829C28.7981 43.3875 31.1137 42.2958 31.1137 42.2958L31.0274 51.4618C31.0274 51.4618 29.3262 51.4415 29.1485 51.5075C28.7981 51.6395 28.8438 55.1739 29.1028 55.3465C29.3618 55.5192 36.3036 55.6106 36.5676 55.2602C36.8317 54.9098 36.7657 51.8172 36.6438 51.675C36.4254 51.411 34.7649 51.5176 34.7649 51.5176C34.7649 51.5176 34.9071 38.02 34.8614 37.5883C34.8157 37.1567 34.3383 36.8875 33.7696 37.0196C33.2008 37.1516 28.5289 38.8579 28.3614 39.1118Z" fill="#FA912C"/>
<path d="M12.9544 1.88909C12.6345 2.18362 24.8677 23.9688 24.8677 23.9688C24.8677 23.9688 26.9193 24.2328 31.4997 24.2735C36.0802 24.3141 38.3501 24.0094 38.3501 24.0094C38.3501 24.0094 28.8388 2.10745 28.27 1.88909C27.9907 1.77737 24.2228 1.73675 20.5411 1.69612C16.8544 1.65042 13.2591 1.60472 12.9544 1.88909Z" fill="#2E9DF4"/>
</svg>
