<svg width="65" height="65" viewBox="0 0 65 65" fill="none" xmlns="http://www.w3.org/2000/svg">
<path d="M35.0846 2.15308C34.5361 2.64058 30.2705 11.1058 30.2705 11.1058L27.0967 23.9078L39.4467 22.7753C39.4467 22.7753 49.7197 3.67144 49.9279 3.22964C50.2986 2.4273 50.4967 2.09722 49.0799 2.09722C47.6631 2.09214 35.5975 1.69605 35.0846 2.15308Z" fill="#176CC7"/>
<path d="M41.4781 21.9832C40.8636 21.6532 22.7652 21.3688 22.3386 21.9832C21.9527 22.5418 22.171 25.4719 22.3183 25.8223C22.5824 26.4317 28.4273 29.0875 28.4273 29.0875L28.3156 30.2961C28.3156 30.2961 28.7929 30.418 32.1902 30.418C35.5874 30.418 36.2578 30.2453 36.2578 30.2453L36.2679 29.1535C36.2679 29.1535 41.5288 26.5942 41.7929 26.2387C42.0163 25.9442 42.0925 22.3133 41.4781 21.9832ZM36.0902 26.6145C36.0902 26.6145 36.2578 25.868 35.9074 25.6953C35.557 25.5176 29.5445 25.5989 29.0671 25.6242C28.5898 25.6496 28.5898 26.5028 28.5898 26.5028L24.8015 24.5528L24.7304 23.8266L39.1015 23.9282L39.0507 24.6137L36.0902 26.6145Z" fill="#F79429"/>
<path d="M30.0929 26.3503C29.6155 26.3503 29.3413 26.848 29.3413 27.7062C29.3413 28.5085 29.6155 29.1839 30.2198 29.1332C30.7175 29.0925 30.8901 28.3308 30.8444 27.6554C30.7987 26.848 30.6972 26.3503 30.0929 26.3503Z" fill="#FDFFFF"/>
<path d="M14.8838 46.7645C14.8838 58.9317 25.9084 63.9946 33.226 63.7762C41.7521 63.5223 50.9232 57.0528 50.1666 45.4442C49.4557 34.5516 40.2846 29.5547 32.2713 29.6106C22.958 29.6817 14.8838 36.136 14.8838 46.7645Z" fill="#F79429"/>
<path d="M32.8401 61.9379C32.7132 61.9379 32.5811 61.9379 32.4542 61.9329C28.6456 61.8059 24.8827 60.2012 22.1304 57.5352C19.1851 54.6813 17.5702 50.8219 17.5905 46.6731C17.6362 36.5422 26.4925 31.845 32.4999 31.845H32.5507C40.6909 31.8805 47.3737 38.2079 47.5616 46.7848C47.6429 50.6036 46.4241 54.402 43.3569 57.4184C40.4929 60.2215 36.3491 61.9379 32.8401 61.9379ZM32.4897 33.5309C27.1018 33.5309 19.1343 37.9387 19.114 46.6731C19.0987 53.2036 24.1565 59.9168 32.5811 60.2012C35.7905 60.3028 39.4112 59.1145 42.0772 56.4942C44.8499 53.7672 46.094 50.2125 46.0382 46.8102C45.9163 39.4317 39.8835 33.5614 32.5608 33.5309C32.5456 33.5208 32.505 33.5309 32.4897 33.5309Z" fill="#D25116"/>
<path d="M29.4986 31.2152C29.1482 30.7328 25.558 30.8699 21.6935 34.1961C17.8545 37.502 17.2806 41.1582 17.9712 41.3512C18.7584 41.5695 19.7181 38.0352 23.0341 35.0645C26.081 32.3477 30.1943 32.175 29.4986 31.2152ZM44.931 44.5047C43.7072 44.6773 44.9767 48.3438 42.138 52.4469C39.6752 56.0066 36.8822 57.2965 37.2072 58.0785C37.6439 59.1246 42.1177 56.5195 44.1896 52.2742C46.0634 48.4301 45.84 44.3727 44.931 44.5047Z" fill="#FEFFFA"/>
<path d="M12.9544 1.88909C12.6345 2.18362 24.8677 23.9688 24.8677 23.9688C24.8677 23.9688 26.9193 24.2328 31.4997 24.2735C36.0802 24.3141 38.3501 24.0094 38.3501 24.0094C38.3501 24.0094 28.8388 2.10745 28.27 1.88909C27.9907 1.77737 24.2228 1.73675 20.5411 1.69612C16.8544 1.65042 13.2591 1.60472 12.9544 1.88909Z" fill="#2E9DF4"/>
<path d="M38.0608 42.509C37.4717 37.4055 31.5303 36.9789 29.0674 38.9391C26.6705 40.8484 26.8991 43.5094 28.5799 43.8191C29.9053 44.0629 30.2506 43.0117 30.6366 42.5293C31.51 41.4477 32.9014 41.3461 33.8104 42.2145C34.8412 43.2047 34.2065 45.5711 32.6576 45.6676C31.5049 45.7387 30.9209 45.6777 30.7737 45.8758C30.5655 46.1551 30.5959 48.3539 30.8092 48.5977C31.053 48.877 32.028 48.7043 32.8659 48.7348C34.0186 48.7805 35.2424 50.4867 34.435 51.7664C33.5971 53.0918 31.3678 52.4977 30.5655 51.6953C29.5041 50.634 28.4428 51.2434 28.0873 51.6598C27.5287 52.3199 26.9346 53.8231 28.9963 55.2856C31.053 56.7481 37.294 57.0274 38.5534 52.4977C39.6502 48.5418 37.0909 46.9168 37.0909 46.9168C37.0909 46.9168 38.3959 45.4188 38.0608 42.509Z" fill="#D25116"/>
</svg>
