<svg width="65" height="65" viewBox="0 0 65 65" fill="none" xmlns="http://www.w3.org/2000/svg">
<path d="M35.0846 2.15308C34.5361 2.64058 30.2705 11.1058 30.2705 11.1058L27.0967 23.9078L39.4467 22.7753C39.4467 22.7753 49.7197 3.67144 49.9279 3.22964C50.2986 2.4273 50.4967 2.09722 49.0799 2.09722C47.6631 2.09214 35.5975 1.69605 35.0846 2.15308Z" fill="#176CC7"/>
<path d="M41.4781 21.9832C40.8636 21.6532 22.7652 21.3688 22.3386 21.9832C21.9527 22.5418 22.171 25.4719 22.3183 25.8223C22.5824 26.4317 28.4273 29.0875 28.4273 29.0875L28.3156 30.2961C28.3156 30.2961 28.7929 30.418 32.1902 30.418C35.5874 30.418 36.2578 30.2453 36.2578 30.2453L36.2679 29.1535C36.2679 29.1535 41.5288 26.5942 41.7929 26.2387C42.0163 25.9442 42.0925 22.3133 41.4781 21.9832ZM36.0902 26.6145C36.0902 26.6145 36.2578 25.868 35.9074 25.6953C35.557 25.5176 29.5445 25.5989 29.0671 25.6242C28.5898 25.6496 28.5898 26.5028 28.5898 26.5028L24.7304 24.2024V23.8266L39.1015 23.9282L39.1269 24.3547L36.0902 26.6145Z" fill="#CECDD2"/>
<path d="M30.0929 25.9847C29.6155 25.9847 29.3413 26.4824 29.3413 27.3406C29.3413 28.1429 29.6155 28.8183 30.2198 28.7676C30.7175 28.7269 30.8901 27.9652 30.8444 27.2898C30.7987 26.4875 30.6972 25.9847 30.0929 25.9847Z" fill="#FDFFFF"/>
<path d="M14.7114 46.6629C14.7114 58.8301 25.9087 63.9946 33.2263 63.7762C41.7524 63.5223 50.7509 57.0528 50.1669 45.4442C49.6134 34.445 40.2849 29.5547 32.2716 29.6106C22.9583 29.6817 14.7114 36.0344 14.7114 46.6629Z" fill="#CECDD2"/>
<path d="M32.7693 61.5113C32.6424 61.5113 32.5103 61.5113 32.3834 61.5062C28.5748 61.3793 24.8119 59.7746 22.0596 57.1086C19.1143 54.2547 17.4994 50.3953 17.5197 46.2465C17.5654 36.1156 26.4217 31.4183 32.4291 31.4183H32.4799C40.6201 31.4539 47.3029 37.7812 47.4908 46.3582C47.5721 50.1769 46.008 54.1836 42.9408 57.2C40.0768 60.0082 36.2783 61.5113 32.7693 61.5113ZM32.4189 33.1043C27.031 33.1043 19.0635 37.5121 19.0432 46.2465C19.0279 52.7769 24.0857 59.4902 32.5103 59.7746C35.7197 59.8761 39.0256 58.6472 41.6967 56.0219C44.4693 53.2949 46.0283 49.7808 45.9725 46.3785C45.8404 39 39.8076 33.1297 32.485 33.0941C32.4748 33.0941 32.4342 33.1043 32.4189 33.1043Z" fill="#9B9B9D"/>
<path d="M29.4986 31.2152C29.1482 30.7328 25.558 30.8699 21.6935 34.1961C17.8545 37.502 17.2806 41.1582 17.9712 41.3512C18.7584 41.5695 19.7181 38.0352 23.0341 35.0645C26.081 32.3477 30.1943 32.175 29.4986 31.2152ZM44.6263 44.5453C43.4025 44.718 44.672 48.3844 41.8334 52.4875C39.3705 56.0473 36.5775 57.3371 36.9025 58.1191C37.3392 59.1652 41.813 56.5602 43.8849 52.3148C45.7587 48.4758 45.5353 44.4184 44.6263 44.5453Z" fill="#FEFFFA"/>
<path d="M12.9544 1.88909C12.6345 2.18362 24.8677 23.9688 24.8677 23.9688C24.8677 23.9688 26.9193 24.2328 31.4997 24.2735C36.0802 24.3141 38.3501 24.0094 38.3501 24.0094C38.3501 24.0094 28.8388 2.10745 28.27 1.88909C27.9907 1.77737 24.2228 1.73675 20.5411 1.69612C16.8544 1.65042 13.2591 1.60472 12.9544 1.88909Z" fill="#2E9DF4"/>
<path d="M28.8692 43.8496C29.3973 43.8547 29.8696 43.1387 30.3063 42.702C31.2356 41.7676 32.2106 41.0262 33.3227 42.0317C36.0548 44.5149 30.5704 47.0336 28.4883 50.4766C26.9344 53.0461 26.6196 55.0215 27.0512 55.5496C27.4829 56.0778 37.9895 56.0524 38.1317 55.7883C38.2739 55.5242 38.4212 52.0051 38.1774 51.8375C37.9337 51.6699 32.7692 51.7664 32.7692 51.7664C32.7692 51.7664 33.2008 50.761 34.9731 49.2274C36.918 47.5465 38.477 45.236 38.0606 42.5039C37.1973 36.8571 31.5098 36.6489 29.0469 38.6141C26.645 40.5285 27.163 43.8293 28.8692 43.8496Z" fill="#9B9B9D"/>
</svg>
